<svg width="200" height="239" viewBox="0 0 200 239" fill="none" xmlns="http://www.w3.org/2000/svg">
<mask id="path-1-inside-1_12_4" fill="white">
<path fill-rule="evenodd" clip-rule="evenodd" d="M82.592 158.609C82.592 163.028 86.1738 166.609 90.5921 166.609H108.647C113.065 166.609 116.647 163.028 116.647 158.609V141.068H134.188C138.606 141.068 142.188 137.487 142.188 133.068V115.014C142.188 110.596 138.606 107.014 134.188 107.014H116.647V89C116.647 84.5817 113.065 81 108.647 81H90.592C86.1738 81 82.592 84.5817 82.592 89V107.014H64.5781C60.1598 107.014 56.5781 110.596 56.5781 115.014V133.068C56.5781 137.487 60.1599 141.068 64.5781 141.068H82.592V158.609Z"/>
</mask>
<path fill-rule="evenodd" clip-rule="evenodd" d="M82.592 158.609C82.592 163.028 86.1738 166.609 90.5921 166.609H108.647C113.065 166.609 116.647 163.028 116.647 158.609V141.068H134.188C138.606 141.068 142.188 137.487 142.188 133.068V115.014C142.188 110.596 138.606 107.014 134.188 107.014H116.647V89C116.647 84.5817 113.065 81 108.647 81H90.592C86.1738 81 82.592 84.5817 82.592 89V107.014H64.5781C60.1598 107.014 56.5781 110.596 56.5781 115.014V133.068C56.5781 137.487 60.1599 141.068 64.5781 141.068H82.592V158.609Z" fill="white"/>
<path d="M116.647 141.068V135.068H110.647V141.068H116.647ZM116.647 107.014H110.647V113.014H116.647V107.014ZM82.592 107.014V113.014H88.592V107.014H82.592ZM82.592 141.068H88.592V135.068H82.592V141.068ZM90.5921 160.609C89.4875 160.609 88.592 159.714 88.592 158.609H76.592C76.592 166.341 82.8601 172.609 90.5921 172.609V160.609ZM108.647 160.609H90.5921V172.609H108.647V160.609ZM110.647 158.609C110.647 159.714 109.751 160.609 108.647 160.609V172.609C116.379 172.609 122.647 166.341 122.647 158.609H110.647ZM110.647 141.068V158.609H122.647V141.068H110.647ZM134.188 135.068H116.647V147.068H134.188V135.068ZM136.188 133.068C136.188 134.173 135.292 135.068 134.188 135.068V147.068C141.92 147.068 148.188 140.8 148.188 133.068H136.188ZM136.188 115.014V133.068H148.188V115.014H136.188ZM134.188 113.014C135.292 113.014 136.188 113.909 136.188 115.014H148.188C148.188 107.282 141.92 101.014 134.188 101.014V113.014ZM116.647 113.014H134.188V101.014H116.647V113.014ZM110.647 89V107.014H122.647V89H110.647ZM108.647 87C109.751 87 110.647 87.8954 110.647 89H122.647C122.647 81.268 116.379 75 108.647 75V87ZM90.592 87H108.647V75H90.592V87ZM88.592 89C88.592 87.8954 89.4875 87 90.592 87V75C82.8601 75 76.592 81.268 76.592 89H88.592ZM88.592 107.014V89H76.592V107.014H88.592ZM64.5781 113.014H82.592V101.014H64.5781V113.014ZM62.5781 115.014C62.5781 113.909 63.4736 113.014 64.5781 113.014V101.014C56.8461 101.014 50.5781 107.282 50.5781 115.014H62.5781ZM62.5781 133.068V115.014H50.5781V133.068H62.5781ZM64.5781 135.068C63.4736 135.068 62.5781 134.173 62.5781 133.068H50.5781C50.5781 140.8 56.8461 147.068 64.5781 147.068V135.068ZM82.592 135.068H64.5781V147.068H82.592V135.068ZM88.592 158.609V141.068H76.592V158.609H88.592Z" fill="#EC0921" mask="url(#path-1-inside-1_12_4)"/>
<path d="M35.9843 95.1959C34.8984 97.4615 32.1718 98.4185 29.9062 97.3326C27.6367 96.2467 26.6835 93.5357 27.7656 91.2545C30.1679 86.2232 33.1249 81.5084 36.5429 77.1685C39.9804 72.8154 43.8867 68.854 48.1914 65.356C50.1484 63.7623 53.0234 64.0591 54.6015 66.0123C56.1953 67.9693 55.8984 70.8443 53.9453 72.4185C50.1484 75.5123 46.6953 78.9927 43.6913 82.8052C40.6835 86.6334 38.1015 90.7779 35.9843 95.1959V95.1959ZM43.6328 148.626C42.3046 147.462 40.9101 146.215 40.2109 145.372L40.1718 145.399C38.5429 146.512 36.5273 147.258 33.7734 147.251C30.9921 147.247 28.6952 146.407 26.621 144.672C25.8202 145.661 24.0859 147.133 22.5312 148.45L22.1952 148.731C21.9492 157.563 41.0585 160.235 43.6328 148.626V148.626ZM41.3359 144.489C41.9921 145.286 43.5624 146.665 44.9609 147.887L46.2343 149.012C55.5195 152.614 64.9101 156.251 65.9843 167.544C66.3124 171.04 66.2812 170.887 62.9257 170.954C45.2226 171.305 20.5702 170.661 3.24602 170.954C0.0975818 171.005 -0.226637 171.231 0.101488 166.751C2.53118 155.247 9.3593 153.055 19.6288 149.063C20.1718 148.571 20.871 147.981 21.6093 147.356C23.2617 145.958 25.1367 144.368 25.5898 143.723C24.9921 143.122 24.4413 142.497 23.9062 141.872L21.621 139.219L20.1679 139.258L17.0117 139.34C14.3007 136.223 14.4726 129.528 14.7304 125.661C15.996 117.891 18.9999 112.294 23.8906 109.059C27.207 106.868 29.1835 106.747 33.0585 106.743C36.4374 106.739 38.5117 106.669 41.3945 108.567C50.789 114.754 53.6992 129.356 49.1093 139.188H46.0351L44.0507 141.559C43.207 142.575 42.3515 143.594 41.3359 144.489V144.489ZM22.3906 137.903C22.5624 137.954 22.707 138.04 22.8085 138.157L25.414 141.18C27.7968 143.946 29.8749 145.946 33.7734 145.95C38.0038 145.958 40.0117 143.911 42.5273 140.887L44.8203 138.141C44.9179 138.028 45.0507 137.942 45.2031 137.891C45.4101 137.184 45.5742 136.446 45.6874 135.672C46.0898 132.965 46.1054 130.86 44.8828 128.364C43.8281 126.208 42.3437 125.09 40.7265 124.294C42.4726 126.243 43.9179 128.137 43.5351 129.688C41.4023 127.344 39.2031 125.301 36.9257 123.606C32.164 121.145 29.3632 117.813 28.1132 113.778C21.0898 120.794 19.832 128.989 22.3906 137.903V137.903ZM174.02 140.254C178.102 135.743 179.191 132.7 178.648 126.614C178.562 125.641 178.418 124.653 178.219 123.653C174.887 122.11 172.711 118.715 171.594 113.622C170.262 123.321 158.348 122.907 155.352 124.672C155.352 125.489 155.328 126.262 155.309 127.001C155.176 131.997 155.543 134.653 158.059 138.641C158.48 139.309 158.891 139.954 159.387 140.489C163.391 144.805 170.234 144.262 174.02 140.254ZM141.59 145.626C144.289 145.411 146.145 143.891 147.398 141.696C148.68 139.473 149.355 136.547 149.699 133.571C149.871 132.028 149.98 130.376 150.086 128.696C150.613 120.485 151.187 111.618 160.52 107.848C161.932 107.279 163.418 106.914 164.934 106.766C168.156 106.45 171.449 107.118 174.285 108.739C177.125 110.368 179.523 112.958 180.949 116.485C181.605 118.106 182.059 119.93 182.254 121.95V121.973C182.23 126.93 183.023 133.899 185.176 139.001C186.723 142.669 188.977 145.372 192.121 145.626C192.25 145.633 192.348 145.751 192.34 145.879L192.316 145.969C191.707 147.602 189.027 148.864 185.82 149.477C190.617 150.645 193.941 152.051 196.195 154.532C198.965 157.587 200 162.129 200 169.684C200 170.184 199.594 170.587 199.098 170.587H134.613C134.113 170.587 133.707 170.184 133.707 169.684C133.707 162.329 134.687 157.782 137.301 154.704C139.43 152.196 142.57 150.747 147.082 149.629C144.273 148.934 141.969 147.59 141.387 145.942C141.344 145.821 141.406 145.684 141.527 145.641L141.59 145.626V145.626ZM178.488 149.68C178.047 149.614 177.621 149.532 177.207 149.43C175.937 149.122 174.816 148.645 173.977 147.989C172.699 146.985 172.066 145.571 172.492 143.676C168.66 146.067 164.641 146.063 160.832 143.606L160.574 143.462C160.555 144.59 159.844 147.907 158.754 148.571C156.992 149.641 154.156 150.106 152.082 150.442C151.586 150.524 151.137 150.594 150.734 150.676C150.074 150.805 149.441 150.938 148.832 151.071C154.707 156.782 160.625 159.973 166.578 160.153C172.547 160.333 178.648 157.481 184.898 151.106C183.988 150.891 183.023 150.688 182.004 150.481L181.855 150.45C180.984 150.278 179.758 150.036 178.488 149.68V149.68ZM82.1992 11.3443C90.5156 1.06303 100.102 -4.52682 107.301 4.61772C115.977 5.07475 119.453 18.856 112.535 24.6568L112.496 25.0005C112.766 24.9146 113.039 24.8638 113.297 24.8443C113.809 24.8052 114.297 24.8873 114.715 25.1099C115.168 25.3521 115.52 25.7466 115.699 26.3013C115.871 26.8404 115.875 27.524 115.652 28.3638C115.328 29.3677 114.934 30.5005 114.551 31.481C114.383 31.9498 114.223 32.2896 113.883 32.5591L113.863 32.5709C113.512 32.8482 113.074 32.9498 112.418 32.9146L112.117 32.8794C112.055 36.0123 110.641 37.6021 108.727 39.4263C110.543 45.7584 115.559 46.7271 120.48 47.6802C127.098 48.9576 133.332 58.817 133.332 63.9693V66.8599C133.332 67.3482 132.934 67.7427 132.445 67.7427H67.2968C66.8085 67.7427 66.414 67.3482 66.414 66.8599V64.2466C66.414 57.6646 73.5546 49.0318 80.5078 48.0982C85.6171 47.4146 90.7695 46.7232 92.5468 40.4498L92.0781 40.0435C89.9336 38.1959 88.1367 36.649 87.7968 32.8912L87.6093 32.8951C87.1671 32.8952 86.7325 32.7808 86.3476 32.563C85.707 32.2037 85.2617 31.5787 84.9609 30.8794C84.6015 30.0474 84.4375 29.0748 84.4023 28.3482V27.0709L84.4687 25.9771L84.5234 25.7662C84.9726 24.5201 85.664 24.1177 86.5703 24.1451L85.9687 23.7466C85.6445 19.6958 86.5937 12.6724 82.1992 11.3443V11.3443ZM107.445 40.6373L107.34 40.7349L106.894 41.149C106.535 41.5123 106.125 41.8326 105.672 42.1099C103.93 43.317 102.094 43.9068 100.242 43.9068C98.1015 43.9107 95.957 43.1255 93.9218 41.5982C93.1718 44.6138 91.2421 47.0162 88.4492 48.3755C96.539 53.3091 104.516 53.1646 112.363 47.3404C109.387 45.9927 107.844 43.4068 107.445 40.6373V40.6373ZM88.0351 26.1724C87.0546 25.8326 86.3593 25.6724 86.0937 26.2818L86.0507 27.1099V28.2623C86.0781 28.8404 86.2031 29.5982 86.4726 30.2271C86.6445 30.6255 86.875 30.9693 87.1601 31.1334C87.3007 31.2115 87.4609 31.2466 87.6289 31.2505C87.832 31.2505 88.0625 31.2076 88.3046 31.1412L88.5468 31.0943C89 31.0865 89.3828 31.4459 89.3906 31.899C89.4804 35.6334 91.1406 37.063 93.1523 38.7935L93.9961 39.5279C96.0156 41.3248 98.1484 42.2584 100.242 42.2584C102.269 42.2623 104.305 41.3755 106.195 39.5474L107.055 38.7349C109.168 36.7505 110.727 35.2818 110.426 31.7154C110.418 31.5396 110.457 31.356 110.562 31.1998C110.809 30.8209 111.324 30.7154 111.703 30.9615L112.141 31.1919L112.488 31.2662L112.859 31.2701C113.309 30.1841 113.672 29.024 114.062 27.9146C114.195 27.4146 114.207 27.0474 114.133 26.813C114.09 26.6919 114.023 26.606 113.937 26.563C113.816 26.5005 113.633 26.4732 113.422 26.4927C112.961 26.5279 112.422 26.7505 111.941 27.1138C111.766 27.2427 111.539 27.3052 111.309 27.2662C110.859 27.1919 110.559 26.7623 110.633 26.313C111.41 21.7779 111.055 18.8169 110.09 16.8052C109.242 15.0396 107.891 13.9654 106.426 13.1685C103.184 15.6568 100.891 15.9419 98.6093 16.2232C96.7226 16.4576 94.832 16.6919 92.3398 18.4185C91.1562 19.2349 90.3632 20.2349 89.9609 21.3873C89.5507 22.5591 89.5273 23.9341 89.8711 25.4927C89.8984 25.6451 89.8906 25.8052 89.8359 25.9576C89.7598 26.1623 89.6057 26.3286 89.4073 26.4201C89.209 26.5116 88.9825 26.5209 88.7773 26.4458L88.0351 26.1724V26.1724ZM146.73 73.2115C144.809 71.5982 144.562 68.7232 146.172 66.8013C147.785 64.8795 150.66 64.6334 152.582 66.2427C157.008 69.9576 161 74.149 164.445 78.7974C166.715 81.8521 168.785 85.106 170.609 88.5396C171.773 90.7779 170.922 93.5357 168.703 94.7037C166.465 95.8717 163.707 95.0162 162.539 92.7974C160.968 89.8138 159.16 86.9609 157.133 84.2662C154.016 80.1021 150.652 76.5709 146.73 73.2115V73.2115ZM120.867 177.86C123.25 177.055 125.832 178.352 126.637 180.735C127.441 183.118 126.145 185.696 123.762 186.501C119.928 187.798 115.992 188.771 111.996 189.411C107.988 190.068 103.933 190.397 99.8711 190.395C95.7109 190.395 91.5859 190.051 87.5273 189.38C83.3711 188.688 79.3632 187.669 75.5312 186.356C73.1523 185.532 71.871 182.934 72.6914 180.551C73.5117 178.169 76.1093 176.887 78.4921 177.712C81.9101 178.876 85.4257 179.782 88.9765 180.372C92.4765 180.95 96.1093 181.258 99.8554 181.258C103.535 181.258 107.102 180.965 110.519 180.407C114.082 179.844 117.535 178.973 120.867 177.86V177.86Z" fill="#EC0921"/>
<g clip-path="url(#clip0_12_4)">
<path fill-rule="evenodd" clip-rule="evenodd" d="M86.929 123.08C87.3931 123.08 87.7665 123.457 87.7665 123.921C87.7665 124.385 87.3906 124.763 86.929 124.763H84.8376C84.3759 124.765 84 124.388 84 123.924C84 123.46 84.3759 123.082 84.8376 123.082H86.929V123.08ZM88.9421 117.205C89.3407 117.435 89.4795 117.947 89.2499 118.35C89.0203 118.751 88.5107 118.89 88.1096 118.659L86.3008 117.61C85.9022 117.379 85.7634 116.867 85.993 116.464C86.2226 116.064 86.7322 115.925 87.1333 116.155L88.9421 117.205ZM93.6143 113.126C93.8464 113.527 93.7102 114.041 93.3091 114.275C92.9105 114.508 92.3984 114.371 92.1663 113.968L91.1218 112.151C90.8897 111.75 91.026 111.236 91.4271 111.002C91.8257 110.769 92.3378 110.906 92.5699 111.309L93.6143 113.126ZM110.893 118.659C110.494 118.89 109.982 118.751 109.753 118.35C109.523 117.95 109.662 117.435 110.06 117.205L111.869 116.155C112.268 115.925 112.78 116.064 113.01 116.464C113.239 116.865 113.1 117.379 112.702 117.61L110.893 118.659ZM106.836 113.968C106.604 114.368 106.092 114.508 105.693 114.275C105.295 114.041 105.156 113.527 105.388 113.126L106.433 111.309C106.665 110.909 107.177 110.769 107.575 111.002C107.974 111.236 108.113 111.75 107.881 112.151L106.836 113.968ZM100.988 111.943C100.988 112.409 100.613 112.784 100.151 112.784C99.6867 112.784 99.3133 112.407 99.3133 111.943V109.841C99.3133 109.375 99.6892 109 100.151 109C100.615 109 100.988 109.378 100.988 109.841V111.943V111.943ZM112.074 124.765C111.609 124.765 111.236 124.388 111.236 123.924C111.236 123.46 111.612 123.082 112.074 123.082H114.162C114.627 123.082 115 123.46 115 123.924C115 124.388 114.624 124.765 114.162 124.765H112.074Z" fill="#F0C419"/>
<path fill-rule="evenodd" clip-rule="evenodd" d="M99.0737 115.278H99.9238C104.102 115.278 107.522 118.713 107.522 122.912V130.653H91.4775V122.91C91.475 118.713 94.8959 115.278 99.0737 115.278Z" fill="#EF4136"/>
<path fill-rule="evenodd" clip-rule="evenodd" d="M95.1305 128.075H93.5841V126.053C93.5841 125.488 93.5841 125.427 93.5815 125.361C93.5588 123.201 93.5387 121.361 95.3399 119.478C95.852 118.943 96.4474 118.52 97.1134 118.193C95.5745 121.268 95.0624 124.55 95.1305 128.075Z" fill="white"/>
<path fill-rule="evenodd" clip-rule="evenodd" d="M90.2035 130.605H108.882C109.763 130.605 110.482 131.327 110.482 132.212V133.393C110.482 134.278 109.763 135 108.882 135H90.2035C89.3231 135 88.6041 134.278 88.6041 133.393V132.212C88.6041 131.327 89.3231 130.605 90.2035 130.605Z" fill="#393939"/>
</g>
<path d="M14.4688 217L22.9063 234.438C23.2604 235.146 23.4375 235.677 23.4375 236.031C23.4375 236.781 22.8333 237.458 21.625 238.063C20.9167 238.417 20.3542 238.594 19.9375 238.594C19.5417 238.594 19.2083 238.5 18.9375 238.313C18.6875 238.125 18.5 237.927 18.375 237.719C18.2708 237.51 18.1146 237.198 17.9063 236.781L16.2813 233.406H7.625L6 236.781C5.79167 237.198 5.625 237.5 5.5 237.688C5.39584 237.875 5.20834 238.073 4.9375 238.281C4.6875 238.469 4.35417 238.563 3.9375 238.563C3.54167 238.563 2.98958 238.385 2.28125 238.031C1.07292 237.448 0.46875 236.781 0.46875 236.031C0.46875 235.677 0.645833 235.146 1 234.438L9.4375 216.969C9.66667 216.49 10.0104 216.104 10.4688 215.813C10.9479 215.521 11.4479 215.375 11.9688 215.375C13.0938 215.375 13.9271 215.917 14.4688 217ZM11.9375 224.5L9.875 228.781H14.0313L11.9375 224.5Z" fill="#EC0921"/>
<path d="M52.614 216.25C52.7807 216.563 52.8745 216.844 52.8953 217.094C52.937 217.344 52.9578 217.708 52.9578 218.188V235.531C52.9578 236.969 52.562 237.813 51.7703 238.063C51.3745 238.188 50.8745 238.25 50.2703 238.25C49.6661 238.25 49.187 238.198 48.8328 238.094C48.4786 237.99 48.2078 237.865 48.0203 237.719C47.8328 237.573 47.687 237.365 47.5828 237.094C47.4786 236.74 47.4265 236.198 47.4265 235.469V225C46.9057 225.646 46.1453 226.677 45.1453 228.094C44.1453 229.49 43.5099 230.365 43.239 230.719C42.9682 231.073 42.7807 231.323 42.6765 231.469C42.5724 231.594 42.3119 231.781 41.8953 232.031C41.4994 232.26 41.0619 232.375 40.5828 232.375C40.1244 232.375 39.6974 232.271 39.3015 232.063C38.9265 231.833 38.6557 231.615 38.489 231.406L38.239 231.063C37.8224 230.542 36.9994 229.438 35.7703 227.75C34.5411 226.042 33.8744 225.125 33.7703 225V235.531C33.7703 236.01 33.7494 236.375 33.7078 236.625C33.6869 236.854 33.5932 237.115 33.4265 237.406C33.114 237.969 32.3015 238.25 30.989 238.25C29.7182 238.25 28.9265 237.969 28.614 237.406C28.4474 237.115 28.3432 236.844 28.3015 236.594C28.2807 236.344 28.2703 235.969 28.2703 235.469V218.125C28.2703 217.646 28.2807 217.292 28.3015 217.063C28.3432 216.813 28.4474 216.531 28.614 216.219C28.9265 215.677 29.739 215.406 31.0515 215.406C31.614 215.406 32.0932 215.479 32.489 215.625C32.9057 215.75 33.1765 215.885 33.3015 216.031L33.489 216.219L40.5828 225.531C44.1244 220.844 46.489 217.75 47.6765 216.25C48.0307 215.688 48.864 215.406 50.1765 215.406C51.5099 215.406 52.3224 215.688 52.614 216.25Z" fill="#EC0921"/>
<path d="M74.899 226C76.1281 227.458 76.7427 229.094 76.7427 230.906C76.701 232.99 75.9823 234.74 74.5865 236.156C73.2115 237.552 71.5344 238.25 69.5552 238.25H61.3365C59.8781 238.25 59.0239 237.854 58.7739 237.063C58.6489 236.708 58.5864 236.167 58.5864 235.438V218.094C58.5864 217.594 58.5969 217.229 58.6177 217C58.6594 216.771 58.7635 216.5 58.9302 216.188C59.2219 215.625 60.0344 215.344 61.3677 215.344H69.2427C71.1594 215.344 72.7635 216.01 74.0552 217.344C75.4094 218.698 76.0865 220.323 76.0865 222.219C76.0865 223.594 75.6906 224.854 74.899 226ZM71.2115 230.594C71.2115 230.094 71.149 229.698 71.024 229.406C70.9198 229.115 70.7323 228.906 70.4615 228.781C70.0448 228.615 69.4615 228.531 68.7115 228.531C67.9615 228.531 67.399 228.385 67.024 228.094C66.649 227.802 66.4615 227.208 66.4615 226.313C66.4615 225.396 66.649 224.792 67.024 224.5C67.4198 224.208 68.0656 224.063 68.9615 224.063C69.7948 224.063 70.2948 223.844 70.4615 223.406C70.524 223.177 70.5552 222.802 70.5552 222.281C70.5552 221.76 70.3781 221.396 70.024 221.188C69.6906 220.979 69.1802 220.875 68.4927 220.875H64.1177V232.719H69.2427C70.5552 232.719 71.2115 232.01 71.2115 230.594Z" fill="#EC0921"/>
<path d="M96.8829 216.219C97.0912 215.885 97.3933 215.656 97.7891 215.531C98.1849 215.406 98.6745 215.344 99.2579 215.344C99.862 215.344 100.341 215.396 100.695 215.5C101.05 215.604 101.32 215.729 101.508 215.875C101.695 216.021 101.831 216.24 101.914 216.531C102.039 216.885 102.102 217.427 102.102 218.156V227.594C102.102 230.344 101.247 232.844 99.5391 235.094C98.7058 236.156 97.6329 237.021 96.3204 237.688C95.0078 238.333 93.5495 238.656 91.9454 238.656C90.362 238.656 88.9141 238.323 87.6016 237.656C86.3099 236.99 85.2578 236.115 84.4453 235.031C82.7578 232.823 81.9141 230.323 81.9141 227.531V218.125C81.9141 217.625 81.9245 217.26 81.9453 217.031C81.987 216.781 82.0912 216.5 82.2578 216.188C82.4245 215.875 82.7058 215.656 83.1016 215.531C83.4974 215.406 84.0287 215.344 84.6953 215.344C85.362 215.344 85.8933 215.406 86.2891 215.531C86.6849 215.656 86.9558 215.875 87.1016 216.188C87.3516 216.667 87.4766 217.323 87.4766 218.156V227.531C87.4766 228.802 87.7891 230.01 88.4141 231.156C88.7266 231.74 89.1953 232.208 89.8203 232.563C90.4453 232.917 91.1849 233.094 92.0391 233.094C93.5599 233.094 94.6953 232.531 95.4453 231.406C96.1953 230.281 96.5704 228.979 96.5704 227.5V217.938C96.5704 217.125 96.6745 216.552 96.8829 216.219Z" fill="#EC0921"/>
<path d="M122.026 232.281L122.589 231.875C123.297 231.458 123.797 231.25 124.089 231.25C124.734 231.25 125.432 231.833 126.182 233C126.641 233.729 126.87 234.313 126.87 234.75C126.87 235.188 126.724 235.552 126.432 235.844C126.162 236.135 125.839 236.396 125.464 236.625C125.089 236.854 124.724 237.073 124.37 237.281C124.037 237.49 123.339 237.76 122.276 238.094C121.214 238.427 120.182 238.594 119.182 238.594C118.203 238.594 117.203 238.469 116.182 238.219C115.182 237.948 114.141 237.51 113.057 236.906C111.995 236.281 111.037 235.531 110.182 234.656C109.328 233.76 108.62 232.625 108.057 231.25C107.516 229.854 107.245 228.344 107.245 226.719C107.245 225.094 107.516 223.625 108.057 222.313C108.599 220.979 109.287 219.885 110.12 219.031C110.974 218.156 111.943 217.427 113.026 216.844C115.068 215.719 117.12 215.156 119.182 215.156C120.162 215.156 121.151 215.313 122.151 215.625C123.172 215.917 123.943 216.219 124.464 216.531L125.214 216.969C125.589 217.198 125.88 217.385 126.089 217.531C126.63 217.969 126.901 218.469 126.901 219.031C126.901 219.573 126.682 220.146 126.245 220.75C125.432 221.875 124.703 222.438 124.057 222.438C123.682 222.438 123.151 222.208 122.464 221.75C121.589 221.042 120.422 220.688 118.964 220.688C117.609 220.688 116.276 221.156 114.964 222.094C114.339 222.552 113.818 223.198 113.401 224.031C112.984 224.865 112.776 225.813 112.776 226.875C112.776 227.917 112.984 228.854 113.401 229.688C113.818 230.521 114.349 231.177 114.995 231.656C116.266 232.573 117.589 233.031 118.964 233.031C119.609 233.031 120.214 232.948 120.776 232.781C121.36 232.615 121.776 232.448 122.026 232.281Z" fill="#EC0921"/>
<path d="M144.657 217L153.094 234.438C153.448 235.146 153.626 235.677 153.626 236.031C153.626 236.781 153.021 237.458 151.813 238.063C151.105 238.417 150.542 238.594 150.126 238.594C149.73 238.594 149.396 238.5 149.126 238.313C148.876 238.125 148.688 237.927 148.563 237.719C148.459 237.51 148.303 237.198 148.094 236.781L146.469 233.406H137.813L136.188 236.781C135.98 237.198 135.813 237.5 135.688 237.688C135.584 237.875 135.396 238.073 135.126 238.281C134.876 238.469 134.542 238.563 134.126 238.563C133.73 238.563 133.178 238.385 132.469 238.031C131.261 237.448 130.657 236.781 130.657 236.031C130.657 235.677 130.834 235.146 131.188 234.438L139.626 216.969C139.855 216.49 140.198 216.104 140.657 215.813C141.136 215.521 141.636 215.375 142.157 215.375C143.282 215.375 144.115 215.917 144.657 217ZM142.126 224.5L140.063 228.781H144.219L142.126 224.5Z" fill="#EC0921"/>
<path d="M175.99 234.406C176.302 235.156 176.458 235.698 176.458 236.031C176.458 236.823 175.812 237.49 174.521 238.031C173.854 238.323 173.312 238.469 172.896 238.469C172.5 238.469 172.167 238.375 171.896 238.188C171.646 237.979 171.458 237.771 171.333 237.563C171.125 237.167 170.312 235.281 168.896 231.906L167.927 231.969H163.99V235.5C163.99 235.979 163.969 236.344 163.927 236.594C163.906 236.823 163.812 237.094 163.646 237.406C163.354 237.969 162.542 238.25 161.208 238.25C159.75 238.25 158.896 237.865 158.646 237.094C158.521 236.74 158.458 236.198 158.458 235.469V218.125C158.458 217.646 158.469 217.292 158.49 217.063C158.531 216.813 158.635 216.531 158.802 216.219C159.094 215.656 159.906 215.375 161.24 215.375H167.99C169.823 215.375 171.604 216.042 173.333 217.375C174.167 218.021 174.854 218.896 175.396 220C175.937 221.104 176.208 222.333 176.208 223.688C176.208 226.042 175.427 227.979 173.865 229.5C174.323 230.604 175.031 232.24 175.99 234.406ZM163.99 226.438H167.99C168.594 226.438 169.198 226.208 169.802 225.75C170.406 225.292 170.708 224.604 170.708 223.688C170.708 222.771 170.406 222.083 169.802 221.625C169.198 221.146 168.573 220.906 167.927 220.906H163.99V226.438Z" fill="#EC0921"/>
<path d="M186.829 232.75H196.454C196.933 232.75 197.287 232.771 197.516 232.813C197.766 232.833 198.048 232.927 198.36 233.094C198.923 233.385 199.204 234.198 199.204 235.531C199.204 236.99 198.819 237.844 198.048 238.094C197.694 238.219 197.152 238.281 196.423 238.281H184.048C182.589 238.281 181.735 237.885 181.485 237.094C181.36 236.76 181.298 236.229 181.298 235.5V218.125C181.298 217.063 181.496 216.344 181.891 215.969C182.287 215.573 183.037 215.375 184.141 215.375H196.454C196.933 215.375 197.287 215.396 197.516 215.438C197.766 215.458 198.048 215.552 198.36 215.719C198.923 216.01 199.204 216.823 199.204 218.156C199.204 219.615 198.819 220.469 198.048 220.719C197.694 220.844 197.152 220.906 196.423 220.906H186.829V224.063H193.016C193.496 224.063 193.85 224.083 194.079 224.125C194.329 224.146 194.61 224.24 194.923 224.406C195.485 224.698 195.766 225.51 195.766 226.844C195.766 228.302 195.371 229.156 194.579 229.406C194.225 229.531 193.683 229.594 192.954 229.594H186.829V232.75Z" fill="#EC0921"/>
<defs>
<clipPath id="clip0_12_4">
<rect width="31" height="26" fill="white" transform="translate(84 109)"/>
</clipPath>
</defs>
</svg>
